<svg id="svg" version="1.1" xmlns="http://www.w3.org/2000/svg" xmlns:xlink="http://www.w3.org/1999/xlink" width="400" height="533.3333333333334" viewBox="0, 0, 400,533.3333333333334"><g id="svgg"><path id="path0" d="M181.889 82.768 C 174.587 83.642,164.453 85.741,144.444 90.523 C 139.617 91.677,134.667 92.841,133.444 93.108 C 132.222 93.376,127.322 94.544,122.556 95.703 C 100.103 101.165,94.347 101.668,85.125 98.974 L 84.584 98.815 85.123 99.574 C 86.140 101.007,89.002 103.843,90.966 105.366 C 93.134 107.045,93.137 107.146,90.991 106.338 C 86.397 104.609,82.824 101.860,80.375 98.172 C 79.061 96.193,79.095 96.174,78.450 99.234 C 74.160 119.563,88.187 154.222,100.703 154.222 L 101.642 154.222 99.766 155.499 C 94.816 158.867,91.310 163.819,89.878 169.467 C 89.089 172.574,89.121 172.664,90.518 171.283 C 92.364 169.456,95.453 167.810,97.889 167.355 C 98.450 167.250,98.933 167.128,98.962 167.082 C 101.724 162.729,103.481 160.505,106.031 158.136 L 107.852 156.444 109.601 156.444 C 117.020 156.444,127.013 153.918,151.778 145.782 C 187.502 134.045,198.324 131.551,205.722 133.348 C 207.111 133.686,207.138 133.766,206.062 134.338 C 189.951 142.901,195.580 174.907,214.174 180.457 C 215.427 180.831,215.142 181.048,212.993 181.354 C 209.661 181.830,203.405 181.271,198.809 180.088 C 197.095 179.647,197.059 179.761,198.473 181.139 C 201.272 183.865,204.504 185.855,212.227 189.608 C 220.219 193.492,221.707 194.547,222.327 196.766 C 223.994 202.730,225.134 232.865,223.911 238.651 C 223.412 241.014,220.921 248.292,219.483 251.588 C 210.602 271.947,198.364 286.207,182.141 295.101 C 178.777 296.946,178.095 300.619,178.259 316.016 C 178.308 320.649,178.282 324.316,178.202 324.164 C 177.978 323.745,177.428 320.468,176.553 314.333 C 174.657 301.060,173.112 293.237,171.904 290.807 C 169.964 286.902,136.626 268.222,131.597 268.222 C 131.145 268.222,130.426 268.324,129.999 268.448 C 128.713 268.823,125.220 269.115,123.731 268.972 L 122.333 268.838 119.530 265.975 C 117.409 263.809,116.591 263.111,116.168 263.111 C 114.154 263.111,115.271 267.179,118.113 270.191 L 119.509 271.671 117.810 273.805 C 116.876 274.979,114.661 277.828,112.889 280.135 C 108.148 286.308,106.102 288.836,104.596 290.381 L 103.250 291.763 103.513 294.007 C 103.852 296.898,104.571 299.010,106.376 302.418 L 107.834 305.170 108.026 308.974 C 109.445 336.968,109.607 338.088,113.354 345.636 C 117.591 354.171,123.722 357.930,134.778 358.771 L 136.556 358.907 134.222 358.107 C 131.957 357.331,129.284 356.015,128.982 355.526 C 128.887 355.372,128.983 355.332,129.250 355.415 C 133.373 356.693,142.975 357.410,149.211 356.906 C 158.029 356.192,161.611 354.893,169.444 349.566 C 182.320 340.812,181.255 341.443,186.778 339.293 C 193.263 336.769,208.034 328.891,214.697 324.404 C 225.674 317.011,234.183 300.568,233.964 287.175 C 233.945 285.979,233.889 285.350,233.841 285.778 C 233.538 288.444,231.715 295.344,231.397 295.027 C 231.350 294.979,231.464 293.554,231.650 291.859 C 232.052 288.210,232.359 282.334,232.665 272.444 C 233.254 253.435,233.356 250.470,233.564 246.222 C 234.342 230.355,235.254 226.418,239.442 220.851 C 246.919 210.912,258.926 205.311,266.278 208.332 C 266.646 208.484,266.667 207.623,266.670 192.079 C 266.672 176.148,266.686 175.624,267.128 174.222 C 273.558 153.861,266.415 137.006,246.925 126.547 C 244.607 125.304,244.447 125.174,244.334 124.444 C 242.003 109.478,228.587 91.689,215.670 86.439 C 212.483 85.143,212.092 85.110,213.444 86.252 C 218.520 90.538,223.759 98.423,225.438 104.303 C 226.297 107.312,226.142 107.460,224.716 104.996 C 215.655 89.346,199.032 80.718,181.889 82.768 M169.222 195.261 C 160.961 196.297,147.962 201.899,142.843 206.632 C 141.440 207.929,141.411 207.542,142.796 206.009 C 143.855 204.837,143.754 204.757,142.234 205.567 C 138.058 207.793,135.257 211.695,134.949 215.717 C 134.804 217.599,135.017 218.000,136.161 218.000 C 137.995 218.000,143.978 215.475,148.000 213.004 C 149.161 212.291,151.261 211.005,152.667 210.147 C 164.991 202.621,180.017 200.280,194.200 203.676 C 196.746 204.286,197.108 204.235,196.111 203.405 C 193.013 200.827,186.074 198.023,179.444 196.672 L 176.333 196.038 178.889 196.012 C 181.809 195.983,181.806 195.712,178.881 195.345 C 177.143 195.128,170.735 195.072,169.222 195.261 M93.461 208.167 C 91.951 209.716,91.444 211.115,91.451 213.710 C 91.458 216.450,91.350 216.329,93.412 215.903 C 95.897 215.389,99.239 215.583,101.203 216.353 C 101.522 216.478,101.583 216.447,101.449 216.229 C 100.862 215.279,105.522 217.111,107.820 218.733 L 109.444 219.879 108.111 220.049 C 104.603 220.497,100.654 223.020,97.260 226.981 L 96.186 228.234 96.482 229.565 L 96.778 230.895 99.444 229.088 C 102.386 227.094,105.368 225.578,107.506 224.989 C 109.217 224.518,109.224 224.524,108.517 225.952 C 107.479 228.049,107.762 230.627,109.243 232.567 C 109.659 233.113,110.000 233.623,110.000 233.700 C 110.000 234.119,101.409 233.337,98.863 232.687 C 97.028 232.218,96.739 232.241,97.764 232.771 C 102.672 235.308,121.003 235.640,122.161 233.212 C 122.627 232.234,122.538 232.171,121.232 232.564 C 119.193 233.177,119.083 233.099,119.838 231.576 C 120.389 230.463,120.487 230.005,120.481 228.558 C 120.474 226.595,120.404 226.615,122.455 228.007 L 123.790 228.914 124.091 228.179 C 124.701 226.686,124.699 226.546,124.052 225.732 C 122.699 224.029,119.556 221.802,117.500 221.089 C 116.463 220.729,116.447 220.535,117.438 220.349 C 118.268 220.194,118.889 219.518,118.889 218.772 C 118.889 217.384,115.038 213.418,112.400 212.088 C 108.187 209.964,102.554 207.890,104.549 209.197 C 105.418 209.767,105.213 210.061,104.278 209.585 C 103.064 208.968,100.788 208.304,98.107 207.787 C 94.764 207.142,94.433 207.169,93.461 208.167 M258.841 211.764 C 255.719 212.984,252.431 216.726,250.008 221.815 C 249.104 223.713,247.906 227.285,248.100 227.502 C 248.129 227.533,249.192 226.521,250.465 225.251 C 258.298 217.436,265.580 219.446,268.118 230.123 C 268.668 232.439,268.654 232.413,269.012 231.778 C 274.047 222.847,266.828 208.641,258.841 211.764 M162.000 212.223 C 156.157 213.218,150.725 217.629,148.532 223.161 C 147.106 226.757,143.115 227.007,143.112 223.500 C 143.111 222.494,142.894 222.444,142.371 223.329 C 140.798 225.992,142.948 230.885,145.692 230.888 C 146.092 230.889,147.543 230.316,149.136 229.529 C 152.567 227.834,153.981 227.337,155.424 227.319 L 156.556 227.305 155.889 227.002 C 155.522 226.836,154.630 226.517,153.907 226.294 C 152.331 225.809,152.033 225.438,152.437 224.463 C 153.332 222.301,157.486 219.739,161.670 218.769 C 163.475 218.350,163.426 218.311,162.884 219.738 C 160.903 224.950,166.215 229.904,171.180 227.475 C 173.435 226.372,174.543 224.554,174.550 221.944 C 174.553 220.997,174.583 220.222,174.617 220.222 C 174.957 220.222,177.631 221.799,179.222 222.938 C 180.871 224.119,182.296 224.889,182.830 224.889 C 182.884 224.889,182.344 224.435,181.631 223.881 C 180.917 223.327,179.824 222.477,179.202 221.992 C 171.916 216.318,162.291 215.198,155.420 219.225 C 153.700 220.233,153.764 219.135,155.520 217.524 C 161.775 211.788,171.365 212.053,181.476 218.242 C 183.300 219.358,183.474 219.252,181.950 217.952 C 177.107 213.821,167.990 211.202,162.000 212.223 M170.038 219.701 C 170.860 220.445,170.261 221.778,169.104 221.778 C 168.371 221.778,167.944 221.314,167.944 220.517 C 167.944 219.462,169.223 218.964,170.038 219.701 M117.284 225.235 C 118.237 225.902,117.816 227.333,116.667 227.333 C 115.923 227.333,115.556 226.955,115.556 226.190 C 115.556 225.662,116.216 224.889,116.667 224.889 C 116.734 224.889,117.012 225.045,117.284 225.235 M246.680 231.129 C 244.222 234.521,245.676 239.071,249.962 241.403 C 251.403 242.186,251.398 242.165,249.765 240.486 C 248.130 238.804,247.332 237.212,247.351 235.667 L 247.365 234.556 247.670 235.386 C 248.538 237.749,251.452 240.486,253.667 241.019 C 254.276 241.166,254.238 241.103,253.222 240.289 C 250.416 238.040,248.411 235.060,248.110 232.692 C 247.744 229.803,247.686 229.739,246.680 231.129 M241.753 235.278 C 241.431 236.113,241.647 237.499,242.189 238.077 C 242.910 238.847,243.111 239.676,243.111 241.873 C 243.111 244.257,243.163 244.157,240.441 247.000 C 237.562 250.006,236.677 253.150,238.363 254.383 C 238.979 254.833,239.395 254.752,239.119 254.237 C 238.252 252.616,239.979 248.456,242.535 246.010 C 243.761 244.837,244.067 243.040,243.543 240.096 C 243.215 238.251,243.167 238.125,242.529 237.437 C 242.051 236.921,241.973 236.654,242.036 235.745 C 242.122 234.503,242.079 234.432,241.753 235.278 M264.127 239.814 C 263.570 244.015,259.999 251.001,257.267 253.233 C 256.716 253.683,256.680 253.752,257.105 253.539 C 260.509 251.839,263.972 245.620,264.368 240.500 C 264.525 238.470,264.366 238.016,264.127 239.814 M248.667 257.693 C 248.239 257.851,247.311 258.092,246.605 258.229 C 245.644 258.416,245.070 258.696,244.325 259.341 C 243.258 260.264,242.200 260.661,240.778 260.670 L 239.889 260.676 241.425 261.671 C 243.448 262.982,243.774 262.955,245.624 261.329 C 246.456 260.598,247.321 260.000,247.545 260.000 C 248.005 260.000,249.214 258.725,249.445 257.998 C 249.643 257.375,249.587 257.353,248.667 257.693 M129.951 260.981 C 127.568 261.822,125.333 263.746,125.333 264.955 C 125.333 265.243,125.458 265.265,126.056 265.089 C 127.110 264.777,128.556 265.032,132.667 266.258 C 136.107 267.283,138.814 267.851,139.408 267.671 C 139.550 267.628,139.934 267.534,140.261 267.463 C 142.233 267.033,142.803 265.203,141.456 263.629 C 139.165 260.953,133.637 259.680,129.951 260.981 M134.386 287.138 C 144.146 290.257,157.775 295.541,158.315 296.414 C 158.426 296.595,157.959 296.667,156.680 296.667 C 154.802 296.667,154.302 296.953,155.722 297.215 C 161.188 298.223,167.785 304.337,166.352 307.067 C 164.650 310.308,153.440 315.176,147.000 315.470 C 145.900 315.520,144.337 315.623,143.526 315.698 C 141.669 315.870,140.555 315.400,137.294 313.072 C 134.976 311.417,131.136 309.333,130.403 309.333 C 130.084 309.333,130.000 309.510,130.000 310.179 C 130.000 312.321,124.974 317.204,121.782 318.164 C 116.277 319.820,113.941 316.915,111.977 305.971 C 111.158 301.409,111.889 298.905,115.010 295.588 C 116.033 294.501,116.667 293.640,116.667 293.339 C 116.667 292.900,121.587 287.556,121.991 287.556 C 122.068 287.556,122.521 288.067,122.998 288.692 C 124.954 291.257,125.734 291.341,127.653 289.192 C 130.221 286.317,131.038 286.068,134.386 287.138 M260.686 305.278 C 258.253 314.362,252.181 328.978,244.967 343.115 C 241.221 350.456,240.279 352.190,233.442 364.333 C 230.367 369.795,222.855 382.218,218.902 388.377 C 218.100 389.626,216.108 392.750,214.474 395.320 C 212.841 397.890,210.863 400.744,210.079 401.663 L 208.654 403.333 211.416 403.333 C 217.168 403.333,225.224 405.461,235.778 409.768 C 242.954 412.696,248.604 414.878,249.855 415.204 L 251.096 415.527 267.505 404.438 L 283.913 393.350 285.431 390.175 C 286.266 388.429,287.922 384.950,289.113 382.444 C 290.303 379.939,291.802 376.789,292.443 375.444 C 293.084 374.100,294.487 371.150,295.560 368.889 C 302.925 353.363,303.682 351.845,305.273 349.401 C 305.624 348.862,306.772 350.161,294.222 336.893 C 291.961 334.503,288.611 330.949,286.778 328.996 C 284.944 327.044,281.594 323.495,279.333 321.110 C 277.072 318.725,272.181 313.549,268.465 309.609 C 264.748 305.668,261.648 302.445,261.576 302.445 C 261.504 302.446,261.103 303.721,260.686 305.278 M162.547 373.921 C 160.352 376.227,155.706 381.159,152.222 384.882 C 131.902 406.602,127.672 411.303,126.717 413.222 C 126.075 414.512,125.394 417.470,124.976 420.778 C 124.776 422.367,124.538 423.717,124.449 423.778 C 123.752 424.253,117.341 430.131,117.387 430.254 C 117.437 430.389,135.497 444.843,156.111 461.246 C 167.822 470.565,168.544 471.121,168.812 471.017 C 170.030 470.550,182.057 462.088,182.361 461.484 C 182.693 460.827,185.507 455.844,190.665 446.778 C 191.848 444.700,194.199 440.550,195.890 437.556 C 197.581 434.561,199.567 431.061,200.302 429.778 C 203.093 424.905,206.444 418.852,206.444 418.682 C 206.444 418.585,205.594 417.690,204.556 416.692 C 202.260 414.489,202.214 415.250,204.985 409.669 C 206.258 407.103,207.283 404.993,207.261 404.980 C 207.240 404.966,206.482 405.765,205.577 406.755 C 200.971 411.796,188.138 424.468,187.093 425.009 C 184.798 426.197,171.669 427.623,169.531 426.918 C 166.968 426.072,165.839 419.943,167.438 415.556 C 168.431 412.831,170.085 409.890,172.810 406.000 C 176.972 400.059,176.983 400.021,175.781 395.444 C 174.733 391.455,168.714 374.606,166.821 370.365 L 166.538 369.730 162.547 373.921 M200.667 417.924 C 200.667 419.187,193.318 425.899,189.444 428.174 C 185.627 430.416,177.778 432.351,177.778 431.049 C 177.778 430.298,178.434 429.842,179.712 429.706 C 184.827 429.160,189.684 426.605,196.742 420.749 C 200.092 417.969,200.667 417.556,200.667 417.924 " stroke="none" fill="#12131b" fill-rule="evenodd"></path><path id="path1" d="M0.000 266.667 L 0.000 533.333 200.000 533.333 L 400.000 533.333 400.000 266.667 L 400.000 0.000 200.000 0.000 L 0.000 0.000 0.000 266.667 M197.916 76.130 C 226.011 84.364,245.602 100.406,246.814 116.169 L 246.957 118.029 248.491 118.801 C 269.888 129.577,278.940 148.787,272.756 170.296 L 272.000 172.924 272.000 190.135 L 272.000 207.346 273.558 209.272 C 280.077 217.330,280.571 229.672,274.825 240.882 C 273.977 242.536,272.991 244.470,272.634 245.181 C 272.276 245.891,271.233 248.691,270.315 251.403 C 267.938 258.424,265.989 262.154,262.895 265.603 L 261.756 266.873 261.502 272.783 C 261.073 282.728,261.990 288.532,265.259 296.556 C 267.772 302.723,267.969 302.958,281.444 315.888 C 284.744 319.054,288.744 322.908,290.333 324.453 C 291.922 325.997,297.272 331.141,302.222 335.883 C 307.172 340.625,311.756 345.026,312.408 345.662 L 313.593 346.820 312.685 348.303 C 311.526 350.197,311.485 350.070,313.500 350.848 C 314.447 351.214,317.222 352.282,319.667 353.222 C 322.111 354.163,326.511 355.862,329.444 356.999 C 332.378 358.136,336.428 359.692,338.444 360.457 C 340.461 361.222,342.188 361.914,342.282 361.995 C 342.475 362.161,342.968 361.821,318.667 378.266 C 300.815 390.347,296.455 393.298,291.000 396.998 C 289.411 398.076,276.661 406.707,262.667 416.179 C 248.672 425.650,235.722 434.422,233.889 435.672 C 232.056 436.921,228.652 439.231,226.326 440.805 C 213.469 449.505,177.255 474.023,173.479 476.584 L 169.070 479.575 168.035 478.739 C 167.466 478.279,165.350 476.544,163.333 474.883 C 159.557 471.774,153.184 466.535,144.444 459.357 C 135.788 452.246,133.292 450.193,130.778 448.113 C 127.994 445.811,124.968 443.321,115.279 435.356 C 111.521 432.267,108.407 429.673,108.357 429.592 C 108.308 429.511,110.793 427.417,113.880 424.938 L 119.492 420.432 119.625 418.160 C 119.984 412.035,120.498 411.198,130.639 400.222 C 137.757 392.518,150.064 379.393,156.712 372.416 C 158.765 370.261,160.444 368.401,160.444 368.283 C 160.444 367.871,157.077 361.556,156.858 361.556 C 156.737 361.556,156.450 361.656,156.221 361.779 C 151.509 364.300,137.416 364.342,127.698 361.863 C 126.981 361.680,126.349 361.577,126.292 361.634 C 126.046 361.880,129.417 363.600,131.556 364.319 C 134.355 365.260,133.770 365.364,129.076 364.756 C 118.207 363.349,112.922 359.137,108.694 348.510 C 106.310 342.519,105.745 337.919,104.785 316.667 L 104.449 309.222 102.917 306.222 C 100.369 301.233,99.932 299.626,99.564 293.889 C 99.290 289.628,98.579 286.782,95.454 277.446 C 91.036 264.248,90.942 263.570,91.980 252.444 C 93.628 234.781,93.401 231.756,89.771 222.969 C 85.893 213.583,85.754 210.295,89.080 206.609 L 89.833 205.773 89.330 202.831 C 87.680 193.192,88.839 182.468,92.345 174.944 C 93.454 172.565,93.370 172.462,91.202 173.545 C 89.710 174.291,87.680 176.019,86.414 177.620 C 85.399 178.905,85.382 178.814,86.015 175.444 C 87.846 165.697,90.604 159.552,94.504 156.532 C 95.720 155.591,95.716 155.570,94.293 155.304 C 79.301 152.503,68.414 111.024,76.345 86.926 C 77.632 83.015,77.680 82.944,77.871 84.667 C 78.422 89.642,80.804 95.889,83.693 99.938 C 84.946 101.694,85.220 101.637,84.080 99.858 C 82.770 97.814,81.960 95.685,81.926 94.197 C 81.883 92.322,82.002 92.279,84.694 93.197 C 92.111 95.726,99.054 95.201,116.444 90.795 C 120.050 89.882,125.464 88.576,128.475 87.894 C 131.486 87.212,135.986 86.156,138.475 85.546 C 165.559 78.917,170.633 77.858,177.962 77.308 C 189.613 76.432,202.024 80.089,210.769 86.974 C 211.878 87.846,211.601 87.367,210.308 86.175 C 207.023 83.148,201.404 79.334,196.519 76.819 C 191.482 74.224,191.457 74.237,197.916 76.130 M161.222 218.996 C 157.416 220.024,153.454 222.544,152.670 224.437 C 152.268 225.408,152.487 225.696,153.930 226.095 C 155.083 226.414,156.246 226.917,157.648 227.705 C 158.341 228.095,161.292 228.444,163.887 228.444 C 166.875 228.444,167.212 228.311,165.833 227.672 C 162.939 226.331,161.505 222.781,162.645 219.780 C 163.134 218.494,163.117 218.484,161.222 218.996 M168.629 219.611 C 167.779 220.296,168.057 221.556,169.060 221.556 C 169.854 221.556,170.222 221.192,170.222 220.408 C 170.222 219.516,169.312 219.061,168.629 219.611 M174.771 222.056 C 174.761 224.360,173.818 226.050,171.784 227.410 C 171.035 227.911,171.477 227.893,174.166 227.310 C 177.317 226.627,181.111 225.127,181.111 224.564 C 181.111 224.329,175.224 220.444,174.869 220.444 C 174.819 220.444,174.775 221.169,174.771 222.056 M106.628 225.429 C 103.466 226.525,96.836 230.638,96.942 231.438 C 97.067 232.379,101.195 233.262,106.526 233.487 L 109.829 233.627 109.032 232.582 C 107.639 230.757,107.340 227.488,108.402 225.688 C 108.984 224.702,108.802 224.676,106.628 225.429 M116.011 225.431 C 115.865 225.607,115.778 226.032,115.817 226.375 C 115.941 227.455,117.778 227.300,117.778 226.211 C 117.778 225.311,116.557 224.773,116.011 225.431 M120.706 228.658 C 120.706 229.845,120.574 230.496,120.143 231.437 C 119.492 232.859,119.543 232.889,121.521 232.264 C 122.600 231.923,123.778 230.320,123.778 229.193 C 123.778 229.133,121.550 227.602,120.964 227.260 C 120.778 227.151,120.706 227.543,120.706 228.658 " stroke="none" fill="#fbfbfb" fill-rule="evenodd"></path><path id="path2" d="M192.889 74.887 C 193.072 75.016,194.706 75.885,196.519 76.819 C 201.404 79.334,207.023 83.148,210.308 86.175 C 211.601 87.367,211.878 87.846,210.769 86.974 C 202.024 80.089,189.613 76.432,177.962 77.308 C 170.633 77.858,165.559 78.917,138.475 85.546 C 135.986 86.156,131.486 87.212,128.475 87.894 C 125.464 88.576,120.050 89.882,116.444 90.795 C 99.054 95.201,92.111 95.726,84.694 93.197 C 82.002 92.279,81.883 92.322,81.926 94.197 C 81.960 95.685,82.770 97.814,84.080 99.858 C 85.220 101.637,84.946 101.694,83.693 99.938 C 80.804 95.889,78.422 89.642,77.871 84.667 C 77.680 82.944,77.632 83.015,76.345 86.926 C 68.414 111.024,79.301 152.503,94.293 155.304 C 95.716 155.570,95.720 155.591,94.504 156.532 C 90.604 159.552,87.846 165.697,86.015 175.444 C 85.382 178.814,85.399 178.905,86.414 177.620 C 87.680 176.019,89.710 174.291,91.202 173.545 C 93.370 172.462,93.454 172.565,92.345 174.944 C 88.839 182.468,87.680 193.192,89.330 202.831 L 89.833 205.773 89.080 206.609 C 85.754 210.295,85.893 213.583,89.771 222.969 C 93.401 231.756,93.628 234.781,91.980 252.444 C 90.942 263.570,91.036 264.248,95.454 277.446 C 98.579 286.782,99.290 289.628,99.564 293.889 C 99.932 299.626,100.369 301.233,102.917 306.222 L 104.449 309.222 104.785 316.667 C 105.745 337.919,106.310 342.519,108.694 348.510 C 112.922 359.137,118.207 363.349,129.076 364.756 C 133.770 365.364,134.355 365.260,131.556 364.319 C 129.417 363.600,126.046 361.880,126.292 361.634 C 126.349 361.577,126.981 361.680,127.698 361.863 C 137.416 364.342,151.509 364.300,156.221 361.779 C 156.450 361.656,156.737 361.556,156.858 361.556 C 157.077 361.556,160.444 367.871,160.444 368.283 C 160.444 368.401,158.765 370.261,156.712 372.416 C 150.064 379.393,137.757 392.518,130.639 400.222 C 120.498 411.198,119.984 412.035,119.625 418.160 L 119.492 420.432 113.880 424.938 C 110.793 427.417,108.308 429.511,108.357 429.592 C 108.407 429.673,111.521 432.267,115.279 435.356 C 124.968 443.321,127.994 445.811,130.778 448.113 C 133.292 450.193,135.788 452.246,144.444 459.357 C 153.184 466.535,159.557 471.774,163.333 474.883 C 165.350 476.544,167.466 478.279,168.035 478.739 L 169.070 479.575 173.479 476.584 C 177.255 474.023,213.469 449.505,226.326 440.805 C 228.652 439.231,232.056 436.921,233.889 435.672 C 235.722 434.422,248.672 425.650,262.667 416.179 C 276.661 406.707,289.411 398.076,291.000 396.998 C 296.455 393.298,300.815 390.347,318.667 378.266 C 342.968 361.821,342.475 362.161,342.282 361.995 C 342.188 361.914,340.461 361.222,338.444 360.457 C 336.428 359.692,332.378 358.136,329.444 356.999 C 326.511 355.862,322.111 354.163,319.667 353.222 C 317.222 352.282,314.447 351.214,313.500 350.848 C 311.485 350.070,311.526 350.197,312.685 348.303 L 313.593 346.820 312.408 345.662 C 311.756 345.026,307.172 340.625,302.222 335.883 C 297.272 331.141,291.922 325.997,290.333 324.453 C 288.744 322.908,284.744 319.054,281.444 315.888 C 267.969 302.958,267.772 302.723,265.259 296.556 C 261.990 288.532,261.073 282.728,261.502 272.783 L 261.756 266.873 262.895 265.603 C 265.989 262.154,267.938 258.424,270.315 251.403 C 271.233 248.691,272.276 245.891,272.634 245.181 C 272.991 244.470,273.977 242.536,274.825 240.882 C 280.571 229.672,280.077 217.330,273.558 209.272 L 272.000 207.346 272.000 190.135 L 272.000 172.924 272.756 170.296 C 278.940 148.787,269.888 129.577,248.491 118.801 L 246.957 118.029 246.814 116.169 C 245.802 103.012,232.919 90.307,210.966 80.816 C 205.080 78.271,191.245 73.734,192.889 74.887 M196.245 83.614 C 209.306 87.038,218.174 93.698,224.716 104.996 C 226.142 107.460,226.297 107.312,225.438 104.303 C 223.759 98.423,218.520 90.538,213.444 86.252 C 212.092 85.110,212.483 85.143,215.670 86.439 C 228.587 91.689,242.003 109.478,244.334 124.444 C 244.447 125.174,244.607 125.304,246.925 126.547 C 266.415 137.006,273.558 153.861,267.128 174.222 C 266.686 175.624,266.672 176.148,266.670 192.080 L 266.667 208.493 267.763 209.693 C 275.021 217.635,275.804 230.955,269.712 242.867 C 268.625 244.994,267.288 247.894,266.741 249.311 C 263.370 258.050,261.835 260.931,258.464 264.848 L 257.084 266.452 256.961 273.170 C 256.796 282.165,257.532 289.039,259.474 296.666 C 260.798 301.865,259.057 299.723,279.333 321.110 C 281.594 323.495,284.944 327.044,286.778 328.996 C 288.611 330.949,291.961 334.503,294.222 336.893 C 306.764 350.153,305.623 348.862,305.277 349.401 C 305.104 349.669,304.689 350.360,304.355 350.935 L 303.747 351.981 304.551 352.317 C 304.993 352.502,306.825 353.215,308.622 353.903 C 310.419 354.590,315.189 356.429,319.222 357.989 C 323.256 359.549,327.348 361.124,328.316 361.488 L 330.076 362.149 328.205 363.419 C 326.178 364.795,310.765 375.214,301.444 381.510 C 271.570 401.688,253.544 413.873,248.333 417.409 C 244.911 419.731,240.261 422.880,238.000 424.405 C 235.739 425.930,232.054 428.424,229.812 429.946 C 227.570 431.468,222.870 434.648,219.368 437.012 C 205.589 446.316,197.265 451.940,193.333 454.602 C 191.072 456.133,186.772 459.040,183.778 461.063 C 180.783 463.085,176.216 466.173,173.629 467.925 C 171.042 469.678,168.816 471.111,168.683 471.111 C 168.402 471.111,117.507 430.570,117.387 430.251 C 117.341 430.131,123.759 424.248,124.449 423.778 C 124.538 423.717,124.776 422.367,124.976 420.778 C 125.636 415.555,126.364 413.304,128.069 411.222 C 129.861 409.034,136.212 402.025,142.772 394.993 C 151.542 385.592,158.964 377.683,162.526 373.943 C 165.777 370.529,166.475 369.684,166.381 369.276 C 166.215 368.552,161.100 355.029,160.921 354.841 C 160.838 354.753,159.997 354.927,159.052 355.227 C 151.691 357.564,136.492 357.660,129.250 355.415 C 128.983 355.332,128.887 355.372,128.982 355.526 C 129.284 356.015,131.957 357.331,134.222 358.107 L 136.556 358.907 134.778 358.771 C 123.722 357.930,117.591 354.171,113.354 345.636 C 109.972 338.824,109.408 335.729,108.559 319.333 C 108.372 315.728,108.131 311.078,108.024 309.000 L 107.830 305.222 106.133 301.889 C 104.045 297.789,103.611 296.181,103.347 291.556 C 103.111 287.433,102.545 284.722,100.514 278.000 C 95.218 260.466,95.461 262.394,96.767 248.333 C 98.015 234.892,97.691 231.565,94.356 223.575 C 90.611 214.603,90.420 211.287,93.469 208.158 L 94.289 207.317 94.002 205.492 C 92.336 194.919,94.493 176.181,98.249 168.582 L 98.895 167.275 97.948 167.383 C 95.813 167.626,92.407 169.413,90.518 171.283 C 89.121 172.664,89.089 172.574,89.878 169.467 C 91.295 163.880,94.679 159.047,99.553 155.649 L 101.440 154.333 100.253 154.188 C 87.424 152.619,74.212 119.318,78.450 99.234 C 79.095 96.174,79.061 96.193,80.375 98.172 C 82.824 101.860,86.397 104.609,90.991 106.338 C 93.137 107.146,93.134 107.045,90.966 105.366 C 89.002 103.843,86.140 101.007,85.123 99.574 L 84.584 98.815 85.125 98.974 C 94.347 101.668,100.103 101.165,122.556 95.703 C 127.322 94.544,132.222 93.376,133.444 93.108 C 134.667 92.841,139.617 91.677,144.444 90.523 C 179.151 82.227,186.973 81.184,196.245 83.614 " stroke="none" fill="#24ace3" fill-rule="evenodd"></path><path id="path3" d="M199.056 133.046 C 199.331 133.099,199.781 133.099,200.056 133.046 C 200.331 132.993,200.106 132.949,199.556 132.949 C 199.006 132.949,198.781 132.993,199.056 133.046 M202.614 133.046 C 202.890 133.099,203.290 133.097,203.503 133.042 C 203.715 132.986,203.489 132.942,203.000 132.945 C 202.511 132.947,202.337 132.993,202.614 133.046 M203.870 135.683 L 203.000 136.477 203.944 135.757 C 204.807 135.099,205.018 134.889,204.815 134.889 C 204.774 134.889,204.349 135.246,203.870 135.683 M181.444 136.444 C 181.164 136.565,181.123 136.635,181.333 136.635 C 181.517 136.635,181.867 136.549,182.111 136.444 C 182.391 136.324,182.432 136.253,182.222 136.253 C 182.039 136.253,181.689 136.339,181.444 136.444 M179.000 137.111 C 178.720 137.231,178.679 137.302,178.889 137.302 C 179.072 137.302,179.422 137.216,179.667 137.111 C 179.947 136.991,179.988 136.920,179.778 136.920 C 179.594 136.920,179.244 137.006,179.000 137.111 M199.724 140.278 C 199.229 141.036,198.404 142.700,198.484 142.780 C 198.524 142.819,198.926 142.159,199.378 141.314 C 200.194 139.790,200.352 139.317,199.724 140.278 M163.222 142.000 C 162.244 142.348,161.549 142.640,161.677 142.649 C 161.804 142.659,162.754 142.374,163.788 142.017 C 164.821 141.659,165.517 141.367,165.333 141.367 C 165.150 141.368,164.200 141.652,163.222 142.000 M146.333 147.556 C 145.356 147.903,144.660 148.195,144.788 148.205 C 144.916 148.214,145.866 147.930,146.899 147.572 C 147.932 147.215,148.628 146.923,148.444 146.923 C 148.261 146.923,147.311 147.208,146.333 147.556 M196.496 150.667 C 196.496 151.094,196.542 151.269,196.598 151.056 C 196.654 150.842,196.654 150.492,196.598 150.278 C 196.542 150.064,196.496 150.239,196.496 150.667 M130.556 152.444 C 130.275 152.565,130.234 152.635,130.444 152.635 C 130.628 152.635,130.978 152.549,131.222 152.444 C 131.502 152.324,131.543 152.253,131.333 152.253 C 131.150 152.253,130.800 152.339,130.556 152.444 M128.556 153.008 C 127.679 153.312,127.678 153.314,128.444 153.185 C 129.351 153.032,130.278 152.693,129.778 152.698 C 129.594 152.699,129.044 152.839,128.556 153.008 M117.000 155.681 C 115.145 156.084,111.646 156.444,109.584 156.444 L 107.852 156.444 106.031 158.136 C 103.881 160.133,102.119 162.249,100.313 165.000 C 99.591 166.100,98.900 167.073,98.778 167.163 C 98.656 167.253,98.625 167.328,98.711 167.330 C 98.796 167.332,98.582 167.908,98.235 168.611 C 94.491 176.184,92.340 194.937,94.003 205.500 L 94.291 207.333 95.027 207.333 C 95.431 207.333,96.784 207.531,98.033 207.774 C 100.732 208.297,100.487 208.455,99.990 206.510 C 97.910 198.368,101.342 180.882,107.238 169.580 C 110.475 163.374,115.398 157.215,118.350 155.675 C 119.106 155.281,118.836 155.282,117.000 155.681 M196.496 156.000 C 196.496 156.428,196.542 156.603,196.598 156.389 C 196.654 156.175,196.654 155.825,196.598 155.611 C 196.542 155.397,196.496 155.572,196.496 156.000 M198.682 165.222 C 198.682 165.344,198.825 165.694,199.000 166.000 C 199.175 166.306,199.318 166.456,199.318 166.333 C 199.318 166.211,199.175 165.861,199.000 165.556 C 198.825 165.250,198.682 165.100,198.682 165.222 M199.333 166.750 C 199.333 166.990,200.216 168.667,200.342 168.667 C 200.403 168.667,200.239 168.242,199.977 167.722 C 199.462 166.701,199.333 166.506,199.333 166.750 M204.778 174.667 C 205.627 175.522,206.371 176.222,206.433 176.222 C 206.494 176.222,205.849 175.522,205.000 174.667 C 204.151 173.811,203.406 173.111,203.345 173.111 C 203.284 173.111,203.929 173.811,204.778 174.667 M209.333 178.322 C 209.333 178.383,209.633 178.588,210.000 178.778 C 210.367 178.967,210.667 179.073,210.667 179.011 C 210.667 178.950,210.367 178.745,210.000 178.556 C 209.633 178.366,209.333 178.261,209.333 178.322 M197.222 180.000 C 197.669 180.493,197.975 180.617,197.585 180.146 C 197.449 179.982,197.403 179.782,197.483 179.702 C 197.564 179.621,197.447 179.556,197.225 179.556 C 196.834 179.556,196.834 179.571,197.222 180.000 M212.222 179.889 C 212.528 180.064,212.878 180.206,213.000 180.206 C 213.122 180.206,212.972 180.064,212.667 179.889 C 212.361 179.714,212.011 179.571,211.889 179.571 C 211.767 179.571,211.917 179.714,212.222 179.889 M207.280 181.491 C 207.557 181.544,207.957 181.542,208.169 181.486 C 208.382 181.430,208.156 181.387,207.667 181.389 C 207.178 181.392,207.004 181.437,207.280 181.491 M211.167 181.487 C 211.381 181.542,211.731 181.542,211.944 181.487 C 212.158 181.431,211.983 181.385,211.556 181.385 C 211.128 181.385,210.953 181.431,211.167 181.487 M198.889 181.625 C 198.889 181.663,199.214 181.988,199.611 182.347 L 200.333 183.000 199.681 182.278 C 199.072 181.605,198.889 181.453,198.889 181.625 M200.544 183.092 C 200.711 183.362,202.667 184.740,202.667 184.587 C 202.667 184.532,202.156 184.119,201.532 183.671 C 200.909 183.223,200.464 182.962,200.544 183.092 M212.667 190.000 C 213.339 190.355,213.989 190.646,214.111 190.646 C 214.233 190.646,213.783 190.355,213.111 190.000 C 212.439 189.645,211.789 189.354,211.667 189.354 C 211.544 189.354,211.994 189.645,212.667 190.000 M220.833 194.715 C 221.475 195.407,222.000 196.096,222.000 196.246 C 222.000 196.396,222.064 196.454,222.143 196.375 C 222.350 196.169,221.398 194.888,220.466 194.117 C 219.886 193.638,219.987 193.802,220.833 194.715 M172.056 195.054 C 173.003 195.096,174.553 195.096,175.500 195.054 C 176.447 195.012,175.672 194.978,173.778 194.978 C 171.883 194.978,171.108 195.012,172.056 195.054 M168.722 195.264 C 168.936 195.320,169.286 195.320,169.500 195.264 C 169.714 195.208,169.539 195.163,169.111 195.163 C 168.683 195.163,168.508 195.208,168.722 195.264 M178.169 195.268 C 178.446 195.321,178.846 195.319,179.058 195.264 C 179.271 195.208,179.044 195.165,178.556 195.167 C 178.067 195.170,177.893 195.215,178.169 195.268 M181.111 195.757 C 181.355 195.930,180.757 196.000,178.889 196.019 C 177.187 196.037,176.572 196.102,177.047 196.215 C 178.535 196.569,182.463 195.968,181.072 195.600 C 180.877 195.548,180.890 195.601,181.111 195.757 M155.444 199.099 C 154.956 199.330,154.656 199.520,154.778 199.521 C 155.081 199.523,156.834 198.702,156.556 198.689 C 156.433 198.683,155.933 198.868,155.444 199.099 M187.333 198.851 C 187.517 198.965,187.917 199.124,188.222 199.206 C 188.608 199.309,188.676 199.292,188.444 199.149 C 188.261 199.035,187.861 198.876,187.556 198.794 C 187.169 198.691,187.102 198.708,187.333 198.851 M153.556 199.889 C 153.250 200.064,153.100 200.206,153.222 200.206 C 153.344 200.206,153.694 200.064,154.000 199.889 C 154.306 199.714,154.456 199.571,154.333 199.571 C 154.211 199.571,153.861 199.714,153.556 199.889 M190.667 200.222 C 191.094 200.456,191.544 200.648,191.667 200.648 C 191.789 200.648,191.539 200.456,191.111 200.222 C 190.683 199.988,190.233 199.796,190.111 199.796 C 189.989 199.796,190.239 199.988,190.667 200.222 M151.056 201.015 C 150.475 201.317,150.000 201.614,150.000 201.675 C 150.000 201.774,152.200 200.735,152.426 200.529 C 152.701 200.278,151.978 200.534,151.056 201.015 M180.722 202.153 C 180.936 202.209,181.286 202.209,181.500 202.153 C 181.714 202.097,181.539 202.052,181.111 202.052 C 180.683 202.052,180.508 202.097,180.722 202.153 M145.492 202.684 C 142.182 203.628,139.441 205.212,136.914 207.643 L 135.272 209.222 135.399 207.929 C 135.555 206.351,135.420 206.423,133.780 208.796 C 131.055 212.737,130.561 216.393,132.021 221.805 C 132.587 223.903,133.129 224.469,136.238 226.213 C 139.999 228.322,141.765 229.765,142.972 231.716 C 143.355 232.334,143.664 232.611,143.878 232.529 C 144.709 232.210,145.919 233.009,148.762 235.755 C 152.778 239.633,153.828 240.443,155.721 241.117 C 156.253 241.307,156.216 241.240,155.444 240.612 C 154.117 239.532,153.096 238.356,152.167 236.837 C 151.160 235.192,151.126 234.933,151.995 235.552 C 158.182 239.957,170.640 238.424,176.498 232.536 C 177.841 231.187,177.812 231.178,175.432 232.202 C 165.135 236.637,154.573 235.826,150.927 230.321 C 150.545 229.745,150.286 229.188,150.351 229.083 C 150.416 228.978,149.546 229.341,148.417 229.890 C 147.289 230.440,146.058 230.889,145.683 230.888 C 142.947 230.885,140.802 225.986,142.371 223.329 C 142.894 222.444,143.111 222.494,143.112 223.500 C 143.115 227.007,147.106 226.757,148.532 223.161 C 150.291 218.725,156.502 212.889,159.466 212.889 C 159.630 212.889,159.714 212.759,159.653 212.600 C 159.210 211.447,167.011 203.778,168.627 203.778 C 168.812 203.778,168.908 203.723,168.841 203.656 C 168.488 203.303,161.187 205.770,157.667 207.432 C 155.424 208.491,154.168 209.215,148.000 213.004 C 143.978 215.475,137.995 218.000,136.161 218.000 C 135.017 218.000,134.804 217.599,134.949 215.717 C 135.257 211.695,138.058 207.793,142.234 205.567 C 143.754 204.757,143.855 204.837,142.796 206.009 C 141.523 207.418,141.376 208.010,142.585 206.859 C 143.180 206.293,144.317 205.359,145.111 204.783 C 145.906 204.207,146.606 203.679,146.667 203.610 C 146.866 203.385,146.134 203.832,145.000 204.630 L 143.889 205.411 144.778 204.456 C 145.267 203.931,146.057 203.214,146.533 202.862 C 147.539 202.119,147.497 202.112,145.492 202.684 M176.500 202.375 C 176.714 202.431,177.064 202.431,177.278 202.375 C 177.492 202.320,177.317 202.274,176.889 202.274 C 176.461 202.274,176.286 202.320,176.500 202.375 M185.167 202.375 C 185.381 202.431,185.731 202.431,185.944 202.375 C 186.158 202.320,185.983 202.274,185.556 202.274 C 185.128 202.274,184.953 202.320,185.167 202.375 M223.163 203.333 C 223.163 203.761,223.208 203.936,223.264 203.722 C 223.320 203.508,223.320 203.158,223.264 202.944 C 223.208 202.731,223.163 202.906,223.163 203.333 M223.385 205.778 C 223.385 206.206,223.431 206.381,223.487 206.167 C 223.542 205.953,223.542 205.603,223.487 205.389 C 223.431 205.175,223.385 205.350,223.385 205.778 M223.607 208.444 C 223.607 208.872,223.653 209.047,223.709 208.833 C 223.765 208.619,223.765 208.269,223.709 208.056 C 223.653 207.842,223.607 208.017,223.607 208.444 M104.264 209.308 C 104.070 209.427,104.155 209.555,104.549 209.734 C 105.140 210.003,105.313 209.777,104.826 209.373 C 104.669 209.243,104.416 209.213,104.264 209.308 M251.944 210.125 C 251.119 210.549,250.444 210.945,250.444 211.006 C 250.444 211.105,253.533 209.626,253.759 209.418 C 254.063 209.139,253.243 209.459,251.944 210.125 M108.422 210.243 C 109.203 210.603,109.881 210.860,109.927 210.814 C 110.020 210.721,107.394 209.546,107.152 209.572 C 107.068 209.581,107.640 209.883,108.422 210.243 M223.834 211.444 C 223.836 211.933,223.882 212.107,223.935 211.831 C 223.988 211.554,223.986 211.154,223.930 210.942 C 223.875 210.729,223.831 210.956,223.834 211.444 M249.389 211.581 C 248.631 212.066,248.386 212.392,249.056 212.024 C 249.565 211.744,250.364 211.126,250.222 211.122 C 250.161 211.120,249.786 211.327,249.389 211.581 M260.615 211.272 C 261.015 211.322,261.615 211.321,261.948 211.270 C 262.282 211.219,261.956 211.179,261.222 211.180 C 260.489 211.181,260.216 211.223,260.615 211.272 M164.614 211.935 C 164.890 211.988,165.290 211.986,165.503 211.930 C 165.715 211.875,165.489 211.831,165.000 211.834 C 164.511 211.836,164.337 211.882,164.614 211.935 M247.667 212.797 L 247.000 213.370 247.722 212.892 C 248.119 212.629,248.444 212.371,248.444 212.318 C 248.444 212.152,248.350 212.210,247.667 212.797 M115.683 214.494 C 119.222 217.836,119.840 219.899,117.438 220.349 C 116.447 220.535,116.463 220.729,117.500 221.089 C 120.515 222.135,124.893 225.802,124.532 226.980 C 124.453 227.235,124.453 227.385,124.531 227.311 C 124.877 226.988,125.359 224.485,125.244 223.610 C 124.885 220.881,121.834 217.745,115.923 214.030 L 113.736 212.655 115.683 214.494 M165.500 213.496 C 166.019 213.543,166.869 213.543,167.389 213.496 C 167.908 213.449,167.483 213.411,166.444 213.411 C 165.406 213.411,164.981 213.449,165.500 213.496 M254.547 214.722 L 253.444 215.889 254.611 214.786 C 255.253 214.180,255.778 213.655,255.778 213.619 C 255.778 213.454,255.572 213.638,254.547 214.722 M224.061 215.111 C 224.061 215.661,224.104 215.886,224.157 215.611 C 224.210 215.336,224.210 214.886,224.157 214.611 C 224.104 214.336,224.061 214.561,224.061 215.111 M158.833 215.126 C 158.375 215.368,158.000 215.616,158.000 215.676 C 158.000 215.776,159.755 214.955,159.981 214.750 C 160.237 214.519,159.570 214.738,158.833 215.126 M93.444 215.893 C 92.711 216.058,91.993 216.200,91.848 216.208 C 91.499 216.227,92.638 219.548,94.532 224.036 C 95.339 225.950,96.000 227.625,96.000 227.758 C 96.000 228.257,96.447 227.965,97.376 226.860 C 100.540 223.094,104.641 220.492,108.111 220.049 L 109.444 219.879 107.820 218.733 C 105.522 217.111,100.862 215.279,101.449 216.229 C 101.583 216.447,101.522 216.478,101.203 216.353 C 99.300 215.606,95.672 215.391,93.444 215.893 M176.685 215.863 C 176.911 216.071,180.444 217.771,180.444 217.672 C 180.444 217.548,176.987 215.778,176.746 215.778 C 176.661 215.778,176.634 215.816,176.685 215.863 M242.767 216.944 L 241.889 217.889 242.833 217.010 C 243.712 216.194,243.880 216.000,243.712 216.000 C 243.675 216.000,243.250 216.425,242.767 216.944 M253.080 216.389 C 252.441 217.161,252.170 217.556,252.280 217.556 C 252.341 217.556,252.659 217.206,252.985 216.778 C 253.590 215.984,253.664 215.684,253.080 216.389 M155.973 217.128 L 155.000 218.034 156.056 217.192 C 156.636 216.729,157.111 216.322,157.111 216.286 C 157.111 216.115,156.869 216.294,155.973 217.128 M163.170 216.826 C 163.508 216.877,164.008 216.876,164.281 216.823 C 164.554 216.770,164.278 216.729,163.667 216.730 C 163.056 216.732,162.832 216.775,163.170 216.826 M165.944 216.823 C 166.219 216.876,166.669 216.876,166.944 216.823 C 167.219 216.771,166.994 216.727,166.444 216.727 C 165.894 216.727,165.669 216.771,165.944 216.823 M268.905 217.222 C 268.905 217.344,269.048 217.694,269.222 218.000 C 269.397 218.306,269.540 218.456,269.540 218.333 C 269.540 218.211,269.397 217.861,269.222 217.556 C 269.048 217.250,268.905 217.100,268.905 217.222 M269.581 218.667 C 269.576 218.728,269.768 219.428,270.010 220.222 C 270.306 221.199,270.405 221.381,270.316 220.785 C 270.204 220.037,269.613 218.331,269.581 218.667 M224.291 220.111 C 224.292 220.844,224.334 221.118,224.383 220.718 C 224.433 220.319,224.432 219.719,224.381 219.385 C 224.330 219.051,224.290 219.378,224.291 220.111 M177.000 220.374 C 177.122 220.491,177.772 220.960,178.444 221.414 C 179.328 222.012,179.471 222.069,178.961 221.621 C 178.303 221.041,176.512 219.903,177.000 220.374 M250.100 221.132 C 249.905 221.510,249.784 221.859,249.833 221.907 C 249.881 221.955,250.087 221.646,250.290 221.219 C 250.747 220.261,250.589 220.188,250.100 221.132 M254.765 221.680 C 254.039 222.115,253.294 222.631,253.111 222.826 C 252.928 223.021,253.114 222.950,253.526 222.668 C 253.937 222.386,254.787 221.872,255.415 221.526 C 256.042 221.180,256.450 220.895,256.320 220.893 C 256.191 220.891,255.491 221.245,254.765 221.680 M162.283 222.000 C 162.283 222.550,162.326 222.775,162.379 222.500 C 162.432 222.225,162.432 221.775,162.379 221.500 C 162.326 221.225,162.283 221.450,162.283 222.000 M270.496 222.444 C 270.496 222.872,270.542 223.047,270.598 222.833 C 270.654 222.619,270.654 222.269,270.598 222.056 C 270.542 221.842,270.496 222.017,270.496 222.444 M237.949 222.944 C 237.463 223.694,237.027 224.587,237.271 224.333 C 237.582 224.010,238.499 222.444,238.377 222.444 C 238.320 222.444,238.127 222.669,237.949 222.944 M270.730 224.778 C 270.732 225.389,270.775 225.613,270.826 225.275 C 270.877 224.937,270.876 224.437,270.823 224.164 C 270.770 223.890,270.729 224.167,270.730 224.778 M173.719 225.168 L 173.327 225.889 173.775 225.364 C 174.155 224.918,174.359 224.441,174.167 224.446 C 174.136 224.447,173.935 224.772,173.719 225.168 M152.248 225.028 C 152.234 225.288,152.397 225.638,152.611 225.806 C 152.949 226.071,152.967 226.068,152.746 225.778 C 152.607 225.594,152.443 225.244,152.383 225.000 C 152.279 224.578,152.272 224.579,152.248 225.028 M248.349 225.460 C 248.267 225.786,248.243 226.095,248.296 226.148 C 248.348 226.200,248.458 225.976,248.540 225.651 C 248.621 225.325,248.645 225.016,248.593 224.963 C 248.541 224.911,248.431 225.135,248.349 225.460 M249.264 226.444 C 248.106 227.732,248.036 227.764,248.138 226.944 C 248.214 226.335,248.214 226.335,248.018 226.889 C 247.486 228.398,247.825 228.339,249.297 226.667 C 249.943 225.933,250.424 225.333,250.367 225.333 C 250.310 225.333,249.814 225.833,249.264 226.444 M163.556 225.847 C 163.556 225.886,163.881 226.211,164.278 226.570 L 165.000 227.222 164.347 226.500 C 163.739 225.827,163.556 225.676,163.556 225.847 M270.496 227.111 C 270.496 227.539,270.542 227.714,270.598 227.500 C 270.654 227.286,270.654 226.936,270.598 226.722 C 270.542 226.508,270.496 226.683,270.496 227.111 M115.760 226.944 C 115.922 227.158,116.330 227.333,116.667 227.333 C 117.003 227.333,117.411 227.158,117.573 226.944 C 117.824 226.614,117.821 226.597,117.556 226.833 C 117.385 226.986,116.984 227.111,116.667 227.111 C 116.349 227.111,115.949 226.986,115.777 226.833 C 115.512 226.597,115.510 226.614,115.760 226.944 M156.000 227.000 C 156.534 227.305,156.508 227.318,155.333 227.341 C 154.661 227.354,153.911 227.460,153.667 227.576 C 153.279 227.760,153.294 227.772,153.778 227.674 C 154.083 227.612,154.908 227.560,155.611 227.559 C 156.984 227.555,157.229 227.337,156.323 226.925 C 155.537 226.567,155.328 226.616,156.000 227.000 M120.444 227.667 C 120.444 228.094,120.484 228.444,120.531 228.444 C 120.579 228.444,120.659 228.094,120.709 227.667 C 120.759 227.239,120.720 226.889,120.622 226.889 C 120.524 226.889,120.444 227.239,120.444 227.667 M151.556 228.333 C 151.250 228.508,151.100 228.651,151.222 228.651 C 151.344 228.651,151.694 228.508,152.000 228.333 C 152.306 228.159,152.456 228.016,152.333 228.016 C 152.211 228.016,151.861 228.159,151.556 228.333 M120.496 229.556 C 120.496 229.983,120.542 230.158,120.598 229.944 C 120.654 229.731,120.654 229.381,120.598 229.167 C 120.542 228.953,120.496 229.128,120.496 229.556 M269.822 229.711 C 269.683 230.163,269.607 230.570,269.652 230.615 C 269.697 230.660,269.853 230.333,270.000 229.889 C 270.147 229.445,270.223 229.038,270.170 228.985 C 270.118 228.932,269.961 229.259,269.822 229.711 M268.252 231.260 C 268.213 231.886,268.432 232.444,268.718 232.444 C 268.869 232.444,268.868 232.353,268.715 232.167 C 268.590 232.014,268.441 231.639,268.385 231.333 C 268.296 230.850,268.279 230.840,268.252 231.260 M248.104 232.487 C 248.162 233.060,248.364 233.860,248.553 234.264 C 248.741 234.669,248.835 234.800,248.761 234.556 C 248.687 234.311,248.485 233.511,248.312 232.778 C 248.018 231.530,248.004 231.511,248.104 232.487 M97.258 233.929 C 97.573 236.493,97.404 241.598,96.786 248.222 C 95.886 257.851,95.813 261.387,96.452 264.207 C 96.876 266.079,97.009 266.404,97.206 266.058 C 98.138 264.421,100.879 262.011,105.232 258.999 C 108.436 256.783,112.435 253.715,113.321 252.795 C 114.463 251.610,114.483 251.803,113.440 253.944 C 111.661 257.597,111.252 259.234,111.236 262.778 L 111.222 265.889 112.019 267.556 C 112.953 269.507,114.609 271.406,116.395 272.574 C 117.095 273.031,117.708 273.439,117.758 273.479 C 117.808 273.520,117.661 273.778,117.432 274.054 C 117.186 274.350,117.164 274.419,117.380 274.222 C 117.581 274.039,118.142 273.390,118.627 272.780 L 119.509 271.672 118.113 270.191 C 115.271 267.179,114.154 263.111,116.168 263.111 C 116.591 263.111,117.409 263.809,119.530 265.975 L 122.333 268.838 123.731 268.972 C 125.220 269.115,128.713 268.823,129.999 268.448 C 131.743 267.940,134.370 268.586,138.616 270.568 C 139.750 271.097,140.619 271.436,140.548 271.321 C 140.472 271.198,140.974 271.111,141.754 271.111 C 148.068 271.111,151.539 266.451,149.193 261.122 L 148.758 260.133 148.848 261.730 C 148.973 263.936,148.780 264.342,148.183 263.134 C 145.903 258.526,142.885 257.503,131.444 257.458 C 121.376 257.418,118.470 256.957,116.304 255.055 C 114.427 253.408,114.452 252.591,116.528 247.728 C 117.429 245.617,118.739 242.389,119.440 240.556 C 120.687 237.289,121.891 234.201,122.163 233.573 C 122.238 233.399,122.096 233.460,121.847 233.708 C 119.928 235.628,101.936 234.928,97.765 232.771 L 97.072 232.413 97.258 233.929 M224.278 234.111 C 224.281 234.600,224.326 234.774,224.379 234.497 C 224.433 234.221,224.431 233.821,224.375 233.609 C 224.319 233.396,224.276 233.622,224.278 234.111 M107.506 233.719 C 108.029 233.765,108.829 233.765,109.284 233.717 C 109.739 233.669,109.311 233.631,108.333 233.632 C 107.356 233.633,106.983 233.672,107.506 233.719 M242.013 234.253 C 241.762 234.664,241.564 235.150,241.572 235.333 C 241.582 235.550,241.649 235.512,241.766 235.222 L 241.945 234.778 242.053 235.222 C 242.140 235.580,242.151 235.569,242.111 235.167 C 242.084 234.892,242.136 234.667,242.227 234.667 C 242.412 234.667,242.700 233.737,242.559 233.596 C 242.509 233.546,242.263 233.842,242.013 234.253 M245.397 234.778 C 245.399 235.389,245.442 235.613,245.493 235.275 C 245.544 234.937,245.543 234.437,245.490 234.164 C 245.437 233.890,245.395 234.167,245.397 234.778 M242.018 236.458 C 242.008 236.648,242.156 236.998,242.346 237.235 C 242.686 237.660,242.688 237.660,242.487 237.222 C 242.374 236.978,242.227 236.628,242.159 236.444 C 242.052 236.157,242.033 236.158,242.018 236.458 M248.373 237.057 C 248.588 237.456,249.214 238.206,249.763 238.724 L 250.762 239.667 249.769 238.556 C 249.223 237.944,248.597 237.194,248.379 236.889 C 247.994 236.352,247.994 236.358,248.373 237.057 M241.573 237.376 C 241.563 237.582,241.664 237.818,241.796 237.900 C 241.928 237.982,242.228 238.363,242.462 238.746 C 242.696 239.130,242.888 239.327,242.888 239.184 C 242.889 239.040,242.654 238.640,242.366 238.295 C 242.079 237.949,241.787 237.517,241.717 237.333 C 241.614 237.061,241.587 237.069,241.573 237.376 M234.052 238.222 C 234.052 238.650,234.097 238.825,234.153 238.611 C 234.209 238.397,234.209 238.047,234.153 237.833 C 234.097 237.619,234.052 237.794,234.052 238.222 M264.327 240.077 C 264.323 241.746,264.373 242.265,264.481 241.667 C 264.696 240.475,264.708 237.830,264.500 237.701 C 264.408 237.644,264.330 238.713,264.327 240.077 M243.484 239.667 C 243.555 240.278,243.650 240.819,243.695 240.870 C 243.851 241.045,243.733 239.666,243.545 239.111 C 243.417 238.736,243.398 238.917,243.484 239.667 M247.333 239.667 C 247.748 240.094,248.137 240.444,248.198 240.444 C 248.259 240.444,247.970 240.094,247.556 239.667 C 247.141 239.239,246.752 238.889,246.691 238.889 C 246.629 238.889,246.919 239.239,247.333 239.667 M249.768 240.500 C 250.689 241.481,250.889 241.658,250.889 241.491 C 250.889 241.455,250.414 240.980,249.833 240.435 L 248.778 239.444 249.768 240.500 M253.723 240.628 C 254.071 240.937,254.139 241.108,253.946 241.186 C 253.792 241.248,253.892 241.306,254.167 241.316 C 254.836 241.339,254.799 241.229,253.944 240.663 C 253.317 240.247,253.288 240.242,253.723 240.628 M263.590 241.368 C 263.445 241.996,263.366 242.551,263.416 242.601 C 263.465 242.650,263.628 242.180,263.778 241.556 C 263.928 240.931,264.006 240.376,263.952 240.322 C 263.898 240.268,263.735 240.739,263.590 241.368 M233.841 241.444 C 233.843 242.056,233.886 242.279,233.937 241.941 C 233.988 241.604,233.987 241.104,233.934 240.830 C 233.881 240.557,233.840 240.833,233.841 241.444 M243.820 242.335 C 243.758 244.298,243.458 245.075,242.280 246.323 L 241.222 247.444 242.395 246.336 C 243.734 245.070,244.064 244.203,243.942 242.269 L 243.862 241.000 243.820 242.335 M242.889 242.617 C 242.889 243.407,242.754 244.112,242.538 244.451 L 242.187 245.000 242.649 244.475 C 243.073 243.994,243.370 241.333,243.000 241.333 C 242.939 241.333,242.889 241.911,242.889 242.617 M233.624 245.222 C 233.626 245.956,233.667 246.229,233.717 245.829 C 233.766 245.430,233.765 244.830,233.714 244.496 C 233.664 244.162,233.623 244.489,233.624 245.222 M240.444 246.778 C 239.534 247.694,238.839 248.444,238.900 248.444 C 238.961 248.444,239.756 247.694,240.667 246.778 C 241.577 245.861,242.272 245.111,242.211 245.111 C 242.150 245.111,241.355 245.861,240.444 246.778 M220.469 248.691 C 220.332 249.084,220.259 249.444,220.307 249.492 C 220.354 249.539,220.505 249.257,220.642 248.864 C 220.779 248.471,220.852 248.111,220.804 248.064 C 220.757 248.016,220.606 248.299,220.469 248.691 M233.414 250.778 C 233.415 252.000,233.452 252.472,233.497 251.826 C 233.542 251.180,233.542 250.180,233.496 249.604 C 233.451 249.027,233.414 249.556,233.414 250.778 M259.111 251.889 C 257.582 253.437,257.229 253.467,258.448 251.944 L 259.383 250.778 258.267 251.999 C 257.654 252.671,257.209 253.313,257.279 253.426 C 257.349 253.539,257.249 253.571,257.057 253.497 C 256.857 253.420,256.543 253.546,256.320 253.793 C 255.730 254.444,256.329 254.324,257.404 253.575 C 258.277 252.967,260.669 250.667,260.428 250.667 C 260.368 250.667,259.775 251.217,259.111 251.889 M238.320 254.539 C 238.558 254.731,238.958 254.880,239.209 254.870 C 239.576 254.854,239.549 254.815,239.073 254.671 C 238.746 254.573,238.346 254.424,238.184 254.341 C 238.022 254.257,238.083 254.347,238.320 254.539 M233.199 257.556 C 233.199 259.328,233.234 260.053,233.276 259.167 C 233.318 258.281,233.318 256.831,233.276 255.944 C 233.234 255.058,233.199 255.783,233.199 257.556 M216.157 258.340 C 215.829 259.008,215.608 259.556,215.665 259.556 C 215.815 259.556,216.936 257.306,216.836 257.206 C 216.790 257.161,216.485 257.671,216.157 258.340 M248.333 257.576 C 247.722 257.798,247.400 257.985,247.618 257.990 C 247.836 257.996,248.355 257.858,248.772 257.683 C 249.336 257.448,249.557 257.433,249.636 257.628 C 249.695 257.771,249.751 257.714,249.760 257.500 C 249.781 257.047,249.784 257.047,248.333 257.576 M245.444 258.315 C 245.078 258.479,244.478 258.950,244.112 259.362 L 243.445 260.111 244.265 259.358 C 244.734 258.928,245.543 258.481,246.154 258.317 C 246.811 258.141,247.008 258.028,246.667 258.024 C 246.361 258.020,245.811 258.151,245.444 258.315 M249.333 258.177 C 249.333 258.606,248.005 259.967,247.489 260.067 C 247.031 260.156,247.029 260.164,247.458 260.192 C 248.142 260.237,249.847 258.440,249.475 258.067 C 249.397 257.989,249.333 258.039,249.333 258.177 M136.322 260.784 C 141.698 262.184,144.292 266.583,140.261 267.463 C 139.934 267.534,139.550 267.628,139.408 267.671 C 138.814 267.851,136.107 267.283,132.667 266.258 C 128.556 265.032,127.110 264.777,126.056 265.089 C 125.172 265.350,125.094 264.995,125.790 263.870 C 127.434 261.209,132.384 259.758,136.322 260.784 M239.637 260.600 C 239.795 260.758,241.812 260.703,241.981 260.536 C 242.032 260.486,241.491 260.444,240.778 260.444 C 240.065 260.444,239.551 260.514,239.637 260.600 M232.978 264.667 C 232.978 266.561,233.012 267.336,233.054 266.389 C 233.096 265.442,233.096 263.892,233.054 262.944 C 233.012 261.997,232.978 262.772,232.978 264.667 M235.159 264.444 C 234.344 268.230,234.068 278.160,234.640 283.111 C 236.402 298.365,241.328 301.135,249.106 291.246 C 250.033 290.067,250.579 289.596,251.471 289.201 C 253.208 288.433,254.696 285.979,256.195 281.409 C 256.785 279.613,257.492 266.444,256.999 266.444 C 256.948 266.444,255.911 267.919,254.695 269.722 C 251.028 275.158,248.503 277.121,244.949 277.300 C 240.264 277.537,236.167 272.257,235.589 265.239 L 235.423 263.222 235.159 264.444 M210.103 268.722 C 209.760 269.242,209.622 269.549,209.796 269.406 C 210.129 269.130,210.980 267.778,210.820 267.778 C 210.768 267.778,210.445 268.203,210.103 268.722 M232.756 272.444 C 232.756 274.339,232.790 275.114,232.832 274.167 C 232.874 273.219,232.874 271.669,232.832 270.722 C 232.790 269.775,232.756 270.550,232.756 272.444 M145.778 274.104 C 145.778 274.165,146.278 274.468,146.889 274.778 C 147.500 275.087,148.000 275.291,148.000 275.230 C 148.000 275.169,147.500 274.865,146.889 274.556 C 146.278 274.246,145.778 274.043,145.778 274.104 M204.975 275.712 C 204.504 276.287,204.234 276.685,204.376 276.598 C 204.679 276.411,206.086 274.667,205.934 274.667 C 205.878 274.667,205.446 275.137,204.975 275.712 M232.530 278.889 C 232.530 280.417,232.566 281.042,232.609 280.278 C 232.652 279.514,232.652 278.264,232.609 277.500 C 232.566 276.736,232.530 277.361,232.530 278.889 M114.333 278.000 C 113.769 278.733,113.357 279.333,113.418 279.333 C 113.480 279.333,113.991 278.733,114.556 278.000 C 115.120 277.267,115.532 276.667,115.470 276.667 C 115.409 276.667,114.898 277.267,114.333 278.000 M201.437 279.833 L 200.111 281.222 201.500 279.896 C 202.264 279.166,202.889 278.541,202.889 278.507 C 202.889 278.343,202.670 278.543,201.437 279.833 M155.333 279.433 C 155.333 279.494,155.633 279.699,156.000 279.889 C 156.367 280.078,156.667 280.184,156.667 280.123 C 156.667 280.061,156.367 279.856,156.000 279.667 C 155.633 279.477,155.333 279.372,155.333 279.433 M198.881 282.611 L 197.667 283.889 198.944 282.674 C 199.647 282.006,200.222 281.431,200.222 281.396 C 200.222 281.232,200.010 281.424,198.881 282.611 M232.302 283.778 C 232.302 284.939,232.340 285.414,232.386 284.833 C 232.431 284.253,232.431 283.303,232.386 282.722 C 232.340 282.142,232.302 282.617,232.302 283.778 M163.444 284.337 C 163.689 284.536,164.089 284.797,164.333 284.917 L 164.778 285.136 164.333 284.774 C 164.089 284.575,163.689 284.314,163.444 284.194 L 163.000 283.975 163.444 284.337 M195.444 285.703 C 193.916 287.140,193.913 287.146,195.246 286.033 C 196.487 284.997,197.290 284.209,197.083 284.231 C 197.037 284.236,196.300 284.898,195.444 285.703 M108.667 285.333 C 108.279 285.822,108.013 286.222,108.074 286.222 C 108.135 286.222,108.502 285.822,108.889 285.333 C 109.276 284.844,109.543 284.444,109.482 284.444 C 109.421 284.444,109.054 284.844,108.667 285.333 M165.222 285.448 C 165.467 285.648,165.867 285.909,166.111 286.029 L 166.556 286.247 166.111 285.885 C 165.867 285.686,165.467 285.425,165.222 285.305 L 164.778 285.087 165.222 285.448 M232.073 287.667 C 232.074 288.522,232.114 288.845,232.162 288.384 C 232.210 287.923,232.209 287.223,232.160 286.828 C 232.111 286.434,232.072 286.811,232.073 287.667 M129.974 287.080 C 129.424 287.429,128.379 288.380,127.653 289.192 C 125.734 291.341,124.954 291.257,122.998 288.692 C 122.521 288.067,122.068 287.556,121.991 287.556 C 121.587 287.556,116.667 292.900,116.667 293.339 C 116.667 293.640,116.033 294.501,115.010 295.588 C 111.000 299.851,110.694 305.326,113.981 314.023 C 115.882 319.052,120.923 320.154,124.900 316.409 C 125.334 316.001,125.589 315.742,125.467 315.833 C 124.782 316.347,124.779 314.863,125.461 311.829 C 126.114 308.920,126.917 307.997,129.015 307.745 C 131.020 307.504,134.779 306.204,141.755 303.343 C 151.164 299.483,155.419 298.004,157.143 297.997 C 158.144 297.992,157.616 297.655,156.056 297.303 C 154.369 296.923,154.621 296.667,156.680 296.667 C 158.908 296.667,158.837 296.479,156.135 295.218 C 150.726 292.694,133.246 286.444,131.596 286.444 C 131.255 286.444,130.525 286.730,129.974 287.080 M104.549 290.278 L 103.222 291.667 104.611 290.340 C 105.901 289.108,106.102 288.889,105.937 288.889 C 105.903 288.889,105.278 289.514,104.549 290.278 M189.889 290.131 L 189.222 290.703 189.944 290.225 C 190.342 289.963,190.667 289.704,190.667 289.652 C 190.667 289.485,190.573 289.543,189.889 290.131 M231.838 290.667 C 231.838 291.217,231.882 291.442,231.935 291.167 C 231.988 290.892,231.988 290.442,231.935 290.167 C 231.882 289.892,231.838 290.117,231.838 290.667 M233.829 290.889 C 233.829 291.317,233.875 291.492,233.931 291.278 C 233.987 291.064,233.987 290.714,233.931 290.500 C 233.875 290.286,233.829 290.461,233.829 290.889 M232.571 291.238 C 232.490 291.564,232.466 291.873,232.518 291.925 C 232.570 291.978,232.680 291.754,232.762 291.429 C 232.844 291.103,232.868 290.794,232.815 290.741 C 232.763 290.689,232.653 290.912,232.571 291.238 M231.607 292.667 C 231.607 293.094,231.653 293.269,231.709 293.056 C 231.765 292.842,231.765 292.492,231.709 292.278 C 231.653 292.064,231.607 292.239,231.607 292.667 M231.778 293.754 C 231.778 293.904,231.678 293.964,231.556 293.889 C 231.424 293.808,231.337 294.051,231.342 294.487 L 231.351 295.222 231.679 294.466 C 231.859 294.051,231.955 293.659,231.892 293.596 C 231.829 293.533,231.778 293.604,231.778 293.754 M173.149 294.444 C 173.160 295.022,173.510 295.970,173.518 295.444 C 173.521 295.200,173.438 294.800,173.333 294.556 C 173.216 294.283,173.145 294.240,173.149 294.444 M181.292 295.341 C 180.842 295.579,180.414 295.869,180.342 295.985 C 180.271 296.102,180.664 295.944,181.217 295.635 C 181.770 295.326,182.222 295.032,182.222 294.981 C 182.222 294.852,182.207 294.858,181.292 295.341 M233.012 296.123 C 232.929 296.569,232.905 296.979,232.959 297.033 C 233.013 297.087,233.126 296.767,233.210 296.321 C 233.294 295.875,233.318 295.466,233.263 295.411 C 233.209 295.357,233.096 295.677,233.012 296.123 M173.600 296.333 C 173.600 296.578,173.680 297.028,173.778 297.333 C 173.919 297.773,173.956 297.796,173.956 297.444 C 173.956 297.200,173.876 296.750,173.778 296.444 C 173.637 296.005,173.600 295.981,173.600 296.333 M232.349 298.794 C 232.267 299.119,232.243 299.429,232.296 299.481 C 232.348 299.533,232.458 299.310,232.540 298.984 C 232.621 298.658,232.645 298.349,232.593 298.297 C 232.541 298.244,232.431 298.468,232.349 298.794 M174.275 299.556 C 174.275 299.861,174.351 300.411,174.444 300.778 C 174.596 301.372,174.614 301.384,174.614 300.889 C 174.614 300.583,174.538 300.033,174.444 299.667 C 174.293 299.072,174.275 299.060,174.275 299.556 M162.667 300.730 C 162.667 300.788,163.238 301.322,163.935 301.917 C 164.633 302.513,165.133 302.884,165.046 302.742 C 164.855 302.432,162.667 300.581,162.667 300.730 M178.500 302.333 C 178.503 302.822,178.548 302.996,178.602 302.720 C 178.655 302.443,178.653 302.043,178.597 301.831 C 178.542 301.618,178.498 301.844,178.500 302.333 M178.291 304.556 C 178.292 305.289,178.334 305.562,178.383 305.163 C 178.433 304.763,178.432 304.163,178.381 303.829 C 178.330 303.495,178.290 303.822,178.291 304.556 M166.500 305.889 C 166.503 306.378,166.548 306.552,166.602 306.275 C 166.655 305.999,166.653 305.599,166.597 305.386 C 166.542 305.174,166.498 305.400,166.500 305.889 M178.100 313.778 C 178.100 318.117,178.130 319.892,178.166 317.722 C 178.203 315.553,178.203 312.003,178.166 309.833 C 178.130 307.664,178.100 309.439,178.100 313.778 M258.799 310.604 C 257.196 315.453,257.235 315.323,257.515 314.889 C 257.861 314.353,260.266 307.132,260.183 306.881 C 260.141 306.755,259.518 308.431,258.799 310.604 M228.111 308.889 C 227.922 309.256,227.816 309.556,227.877 309.556 C 227.939 309.556,228.144 309.256,228.333 308.889 C 228.523 308.522,228.628 308.222,228.567 308.222 C 228.506 308.222,228.301 308.522,228.111 308.889 M129.778 310.011 C 129.778 311.243,129.310 312.052,127.472 314.000 L 125.900 315.667 127.310 314.333 C 129.127 312.615,130.000 311.273,130.000 310.197 C 130.000 309.742,130.125 309.320,130.278 309.258 C 130.444 309.191,130.399 309.139,130.167 309.129 C 129.857 309.115,129.778 309.295,129.778 310.011 M160.667 311.222 C 159.872 311.638,159.300 311.983,159.395 311.989 C 159.631 312.004,162.222 310.687,162.222 310.552 C 162.222 310.403,162.274 310.381,160.667 311.222 M225.971 312.386 C 222.971 317.013,218.339 321.951,214.697 324.404 C 208.034 328.891,193.263 336.769,186.778 339.293 C 181.997 341.154,181.441 341.444,177.465 344.135 C 175.254 345.632,171.594 348.106,169.333 349.634 C 165.868 351.974,162.272 354.103,161.170 354.465 C 160.982 354.527,161.671 356.619,163.359 361.111 C 166.381 369.158,166.531 369.555,168.061 373.556 C 174.255 389.748,176.095 395.339,176.377 398.817 C 176.531 400.723,176.592 400.601,172.810 406.000 C 166.490 415.021,165.131 420.601,168.061 425.498 C 169.020 427.100,169.451 427.215,173.769 427.021 C 176.873 426.882,181.950 426.320,180.736 426.250 C 180.319 426.226,180.428 426.053,181.485 425.056 C 187.490 419.389,191.411 403.798,191.390 385.667 C 191.378 375.410,192.554 372.524,205.065 352.111 C 207.088 348.811,209.808 344.361,211.110 342.222 C 212.413 340.083,213.730 337.933,214.038 337.444 C 216.331 333.799,220.663 325.834,222.375 322.111 C 223.776 319.066,225.333 314.822,225.333 314.048 C 225.333 313.834,225.567 313.311,225.853 312.885 C 226.878 311.360,227.161 310.889,227.052 310.889 C 226.991 310.889,226.504 311.563,225.971 312.386 M142.393 315.717 C 142.792 315.766,143.392 315.765,143.726 315.714 C 144.060 315.664,143.733 315.623,143.000 315.624 C 142.267 315.626,141.993 315.667,142.393 315.717 M253.202 325.140 C 251.552 328.996,251.332 329.576,251.896 328.591 C 252.455 327.615,254.932 321.746,254.828 321.643 C 254.778 321.593,254.046 323.166,253.202 325.140 M178.161 322.833 C 178.095 323.414,178.129 324.039,178.236 324.222 C 178.363 324.439,178.433 324.071,178.438 323.167 C 178.446 321.514,178.326 321.371,178.161 322.833 M247.396 337.786 C 246.037 340.592,244.974 342.889,245.034 342.889 C 245.190 342.889,250.060 332.875,249.955 332.770 C 249.907 332.722,248.756 334.979,247.396 337.786 M242.918 346.676 C 241.906 348.627,241.128 350.222,241.190 350.222 C 241.351 350.222,244.952 343.323,244.847 343.217 C 244.799 343.169,243.931 344.726,242.918 346.676 M303.228 352.833 C 302.610 354.092,297.755 364.258,295.667 368.667 C 294.654 370.806,293.202 373.856,292.441 375.444 C 288.837 382.967,288.369 384.000,288.564 384.000 C 288.694 384.000,293.333 374.524,293.333 374.260 C 293.333 374.160,294.469 371.785,295.856 368.983 C 297.244 366.181,298.457 363.639,298.553 363.333 C 298.648 363.028,299.576 361.078,300.615 359.000 C 303.022 354.187,304.019 352.000,303.806 352.000 C 303.714 352.000,303.454 352.375,303.228 352.833 M237.767 356.278 C 236.881 357.897,236.115 359.297,236.065 359.389 C 236.015 359.481,236.021 359.556,236.079 359.556 C 236.136 359.556,236.780 358.481,237.508 357.167 C 239.129 354.243,239.596 353.333,239.473 353.333 C 239.421 353.333,238.653 354.658,237.767 356.278 M311.247 355.083 C 312.614 355.724,317.123 357.396,317.220 357.298 C 317.267 357.252,315.886 356.675,314.152 356.018 C 310.656 354.692,309.878 354.441,311.247 355.083 M235.444 360.444 C 235.255 360.811,235.150 361.111,235.211 361.111 C 235.272 361.111,235.477 360.811,235.667 360.444 C 235.856 360.078,235.961 359.778,235.900 359.778 C 235.839 359.778,235.634 360.078,235.444 360.444 M324.444 360.185 C 324.628 360.298,325.028 360.458,325.333 360.539 C 325.719 360.643,325.787 360.625,325.556 360.482 C 325.372 360.369,324.972 360.209,324.667 360.127 C 324.281 360.024,324.213 360.042,324.444 360.185 M326.028 360.759 C 326.104 360.841,326.904 361.195,327.806 361.546 C 328.785 361.927,329.417 362.296,329.376 362.463 C 329.325 362.672,329.399 362.666,329.672 362.440 C 329.993 362.173,329.844 362.064,328.407 361.511 C 326.419 360.747,325.846 360.566,326.028 360.759 M327.430 363.690 C 325.848 364.740,324.660 365.723,325.889 364.965 C 327.043 364.253,329.111 362.829,329.111 362.746 C 329.111 362.590,328.953 362.679,327.430 363.690 M231.985 366.500 C 230.981 368.242,230.118 369.742,230.067 369.833 C 230.016 369.925,230.019 370.000,230.075 370.000 C 230.151 370.000,232.542 365.971,233.932 363.500 C 233.984 363.408,233.978 363.333,233.919 363.333 C 233.860 363.333,232.990 364.758,231.985 366.500 M323.050 366.682 C 321.984 367.424,321.111 368.082,321.111 368.145 C 321.111 368.252,324.533 365.941,324.989 365.526 C 325.545 365.019,324.811 365.457,323.050 366.682 M317.963 370.101 C 316.416 371.134,315.085 372.085,315.005 372.215 C 314.876 372.423,320.223 368.891,320.767 368.409 C 321.349 367.893,320.515 368.396,317.963 370.101 M310.973 374.795 C 309.766 375.598,308.628 376.411,308.444 376.600 C 308.130 376.925,312.759 373.939,313.211 373.526 C 313.777 373.009,312.964 373.470,310.973 374.795 M226.647 375.500 C 225.237 377.861,225.282 377.778,225.416 377.778 C 225.477 377.778,226.048 376.903,226.687 375.833 C 228.096 373.473,228.051 373.556,227.917 373.556 C 227.857 373.556,227.285 374.431,226.647 375.500 M306.803 377.664 C 306.206 378.077,305.606 378.536,305.470 378.683 C 305.334 378.831,305.847 378.534,306.611 378.023 C 307.375 377.512,308.000 377.048,308.000 376.992 C 308.000 376.839,307.979 376.851,306.803 377.664 M301.983 380.908 C 300.342 382.019,298.850 383.080,298.667 383.266 C 298.343 383.594,304.567 379.479,304.989 379.086 C 305.575 378.539,304.688 379.077,301.983 380.908 M221.533 383.833 C 220.529 385.453,219.562 387.003,219.384 387.278 C 219.206 387.553,219.114 387.778,219.180 387.778 C 219.246 387.778,220.189 386.353,221.276 384.611 C 223.704 380.721,223.605 380.889,223.470 380.889 C 223.409 380.889,222.537 382.214,221.533 383.833 M295.204 385.465 C 293.992 386.270,292.850 387.083,292.667 387.270 C 292.350 387.594,296.989 384.599,297.433 384.193 C 297.984 383.689,297.216 384.127,295.204 385.465 M286.169 388.609 C 285.001 391.024,284.076 393.033,284.115 393.073 C 284.190 393.153,288.860 390.084,289.222 389.716 C 289.564 389.369,289.000 389.709,286.842 391.151 C 285.777 391.862,284.851 392.444,284.785 392.444 C 284.718 392.444,285.256 391.261,285.981 389.815 C 287.347 387.090,288.499 384.425,288.368 384.294 C 288.327 384.253,287.337 386.195,286.169 388.609 M291.026 388.331 C 290.429 388.744,289.829 389.203,289.692 389.350 C 289.556 389.497,290.069 389.200,290.833 388.690 C 291.597 388.179,292.222 387.715,292.222 387.658 C 292.222 387.506,292.201 387.518,291.026 388.331 M216.281 392.167 C 214.907 394.329,214.840 394.444,214.965 394.444 C 215.022 394.444,215.561 393.669,216.163 392.722 C 217.538 390.560,217.604 390.444,217.479 390.444 C 217.422 390.444,216.883 391.219,216.281 392.167 M213.914 395.889 C 213.717 396.194,213.394 396.719,213.196 397.056 L 212.836 397.667 213.283 397.126 C 213.811 396.487,214.512 395.333,214.371 395.333 C 214.317 395.333,214.112 395.583,213.914 395.889 M212.190 398.611 C 211.908 399.069,210.899 400.370,209.949 401.502 C 208.999 402.633,208.222 403.600,208.222 403.651 C 208.222 403.701,209.160 403.686,210.305 403.618 C 212.679 403.476,215.641 403.791,219.311 404.576 C 222.291 405.213,222.830 405.152,220.152 404.480 C 217.041 403.700,214.250 403.335,211.378 403.334 L 208.646 403.333 209.956 401.811 C 211.479 400.042,213.080 397.778,212.809 397.778 C 212.751 397.778,212.472 398.153,212.190 398.611 M203.678 408.439 C 198.658 413.791,188.725 423.586,187.484 424.407 C 186.994 424.731,185.734 425.214,184.685 425.480 C 183.636 425.746,182.947 425.972,183.153 425.982 C 183.738 426.010,186.454 425.340,187.093 425.009 C 188.138 424.468,200.971 411.796,205.577 406.755 C 206.482 405.765,207.240 404.966,207.261 404.980 C 207.283 404.993,206.258 407.103,204.985 409.669 C 202.214 415.250,202.260 414.489,204.556 416.692 C 205.594 417.690,206.444 418.585,206.444 418.682 C 206.444 418.852,203.093 424.905,200.302 429.778 C 199.567 431.061,197.581 434.561,195.890 437.556 C 194.199 440.550,191.848 444.700,190.665 446.778 C 181.675 462.578,181.794 462.359,182.356 462.045 C 182.570 461.926,182.768 461.668,182.797 461.472 C 182.825 461.277,183.572 459.841,184.456 458.281 C 186.735 454.257,187.558 452.804,189.835 448.778 C 190.941 446.822,192.820 443.522,194.010 441.444 C 197.815 434.802,200.944 429.276,202.001 427.333 C 202.567 426.294,203.921 423.905,205.010 422.024 L 206.990 418.603 204.884 416.650 L 202.778 414.697 205.420 409.453 C 206.873 406.569,208.013 404.161,207.954 404.102 C 207.894 404.043,205.970 405.994,203.678 408.439 M226.444 406.545 C 227.972 407.070,231.210 408.266,233.640 409.202 C 236.071 410.138,238.099 410.864,238.148 410.815 C 238.389 410.574,224.641 405.517,223.896 405.573 C 223.770 405.582,224.917 406.019,226.444 406.545 M238.889 411.222 C 239.194 411.397,239.544 411.540,239.667 411.540 C 239.789 411.540,239.639 411.397,239.333 411.222 C 239.028 411.048,238.678 410.905,238.556 410.905 C 238.433 410.905,238.583 411.048,238.889 411.222 M240.444 411.849 C 241.360 412.380,248.243 415.072,249.506 415.394 C 250.151 415.558,250.601 415.777,250.506 415.882 C 250.411 415.986,250.458 415.999,250.611 415.911 C 251.109 415.625,250.907 415.443,249.801 415.180 C 249.202 415.038,246.920 414.218,244.730 413.358 C 240.230 411.592,239.644 411.386,240.444 411.849 M196.742 420.749 C 189.684 426.605,184.827 429.160,179.712 429.706 C 178.434 429.842,177.778 430.298,177.778 431.049 C 177.778 431.839,182.952 431.054,186.154 429.778 C 190.507 428.044,196.625 423.309,199.757 419.249 C 201.533 416.947,201.010 417.207,196.742 420.749 " stroke="none" fill="#ab9373" fill-rule="evenodd"></path><path id="path4" d="M198.333 133.143 C 190.302 133.840,180.439 136.518,154.667 144.998 C 134.789 151.539,127.088 153.802,119.520 155.325 C 115.658 156.103,108.469 165.598,104.877 174.667 C 100.259 186.327,98.155 200.554,100.096 207.000 L 100.430 208.111 102.574 208.806 C 104.670 209.486,104.703 209.490,104.081 208.970 L 103.444 208.439 104.111 208.585 C 112.377 210.394,124.654 219.124,125.244 223.610 C 125.424 224.982,124.136 229.371,123.676 228.952 C 123.571 228.856,123.547 228.888,123.624 229.023 C 123.762 229.266,123.507 230.011,121.654 234.778 C 121.131 236.122,120.132 238.722,119.435 240.556 C 118.737 242.389,117.429 245.617,116.528 247.728 C 114.452 252.591,114.427 253.408,116.304 255.055 C 118.470 256.957,121.376 257.418,131.444 257.458 C 142.885 257.503,145.903 258.526,148.183 263.134 C 148.780 264.342,148.973 263.936,148.848 261.730 L 148.758 260.133 149.193 261.122 C 151.496 266.353,148.511 270.619,142.222 271.085 L 140.333 271.225 143.729 272.947 C 152.190 277.238,166.476 285.767,170.386 288.862 C 172.587 290.604,173.583 293.880,175.229 304.783 C 177.066 316.958,178.028 323.213,178.068 323.253 C 178.092 323.277,178.111 319.030,178.111 313.815 C 178.111 298.881,178.602 296.799,182.630 294.653 C 200.232 285.275,214.954 266.139,222.624 242.667 C 224.220 237.784,224.336 236.697,224.321 226.778 C 224.306 216.946,223.759 207.536,222.765 200.000 C 222.087 194.867,221.401 194.147,213.679 190.460 C 204.945 186.290,201.727 184.361,198.774 181.527 C 196.552 179.393,196.552 179.404,198.808 179.979 C 203.405 181.151,208.639 181.689,212.042 181.340 C 214.661 181.071,215.069 180.857,213.729 180.456 C 195.768 175.076,190.075 143.885,205.363 134.617 L 206.727 133.790 206.115 133.557 C 205.506 133.326,201.848 132.872,201.000 132.923 C 200.756 132.938,199.556 133.037,198.333 133.143 M178.367 195.126 C 181.826 195.512,182.721 196.201,179.820 196.245 L 178.333 196.267 179.761 196.579 C 186.106 197.967,192.865 200.634,195.598 202.829 C 197.453 204.320,197.323 204.620,195.085 204.017 C 185.202 201.354,171.305 201.745,166.814 204.813 C 163.997 206.738,159.052 212.015,159.575 212.538 C 159.627 212.590,160.270 212.486,161.002 212.305 C 166.925 210.845,177.288 213.596,181.910 217.854 C 183.716 219.518,183.929 219.986,182.405 218.939 C 173.087 212.539,162.779 211.868,156.057 217.223 C 153.472 219.283,153.617 220.022,156.341 218.667 C 163.849 214.930,173.608 216.667,180.650 222.994 C 181.435 223.699,182.385 224.410,182.761 224.574 L 183.444 224.871 182.822 224.880 C 182.480 224.885,181.894 224.731,181.520 224.537 C 181.146 224.344,180.905 224.290,180.984 224.418 C 181.465 225.198,172.885 228.189,171.505 227.723 C 171.349 227.670,170.886 227.767,170.474 227.938 C 170.063 228.110,169.063 228.251,168.252 228.252 C 167.441 228.253,165.683 228.304,164.346 228.364 C 161.890 228.476,158.704 228.182,157.600 227.741 C 156.295 227.221,153.703 227.566,151.460 228.558 L 150.211 229.111 150.576 229.818 C 153.606 235.677,164.858 236.756,175.432 232.202 C 177.812 231.178,177.841 231.187,176.498 232.536 C 170.640 238.424,158.182 239.957,151.995 235.552 C 150.033 234.155,153.176 238.767,155.444 240.612 C 156.216 241.240,156.253 241.307,155.721 241.117 C 153.828 240.443,152.778 239.633,148.762 235.755 C 145.919 233.009,144.709 232.210,143.878 232.529 C 143.664 232.611,143.355 232.334,142.972 231.716 C 141.765 229.765,139.999 228.322,136.238 226.213 C 133.129 224.469,132.587 223.903,132.021 221.805 C 130.561 216.393,131.055 212.737,133.780 208.796 C 135.420 206.424,135.556 206.351,135.394 207.929 L 135.262 209.222 137.148 207.444 C 139.791 204.953,143.171 203.162,146.778 202.340 C 147.430 202.191,147.425 202.202,146.556 202.845 C 146.067 203.206,145.267 203.931,144.778 204.456 L 143.889 205.411 145.000 204.622 C 149.656 201.316,157.095 198.106,165.000 195.994 C 169.032 194.917,173.745 194.611,178.367 195.126 M258.444 207.879 C 248.579 210.004,237.488 220.307,235.346 229.337 C 234.269 233.876,233.740 242.108,233.110 264.111 C 232.588 282.350,232.214 289.933,231.665 293.444 L 231.561 294.111 231.897 293.378 C 232.404 292.270,233.299 288.596,233.641 286.222 C 233.935 284.178,233.947 284.150,234.011 285.333 C 234.494 294.262,232.067 303.001,226.749 311.480 C 225.970 312.721,225.333 313.895,225.333 314.088 C 225.333 314.826,223.746 319.133,222.375 322.111 C 220.663 325.834,216.331 333.799,214.038 337.444 C 213.730 337.933,212.413 340.083,211.110 342.222 C 209.808 344.361,207.088 348.811,205.065 352.111 C 192.554 372.524,191.378 375.410,191.390 385.667 C 191.411 403.798,187.490 419.389,181.485 425.056 C 180.038 426.421,180.080 426.436,183.402 425.764 C 187.079 425.019,187.285 424.876,193.708 418.577 C 196.865 415.482,201.337 410.935,203.646 408.472 C 205.956 406.009,207.894 404.043,207.954 404.102 C 208.013 404.161,206.873 406.569,205.420 409.453 L 202.778 414.697 204.884 416.650 L 206.990 418.603 205.010 422.024 C 203.921 423.905,202.567 426.294,202.001 427.333 C 200.965 429.238,197.993 434.488,194.012 441.444 C 189.077 450.070,186.972 453.780,185.882 455.778 C 185.248 456.939,184.212 458.778,183.579 459.864 C 182.517 461.688,182.477 461.808,183.048 461.439 C 183.388 461.219,198.167 451.240,215.889 439.262 C 233.611 427.285,248.704 417.085,249.428 416.597 L 250.744 415.709 249.604 415.417 C 248.243 415.069,245.454 414.005,241.222 412.221 C 226.295 405.927,216.638 403.240,210.305 403.618 C 209.160 403.686,208.222 403.697,208.222 403.643 C 208.222 403.588,208.961 402.671,209.864 401.605 C 211.741 399.388,212.575 398.123,220.729 385.111 C 241.082 352.634,255.117 324.340,260.791 304.346 L 261.394 302.222 260.828 300.944 C 259.309 297.517,257.821 290.145,257.086 282.408 L 256.819 279.594 256.183 281.488 C 254.648 286.057,253.191 288.440,251.471 289.201 C 250.579 289.596,250.033 290.067,249.106 291.246 C 240.056 302.752,234.362 296.560,234.371 275.222 C 234.374 267.808,235.298 260.384,235.614 265.237 C 236.061 272.116,240.256 277.537,244.949 277.300 C 248.480 277.122,250.989 275.184,254.689 269.778 C 255.902 268.006,257.552 265.806,258.357 264.889 C 261.532 261.271,263.270 258.092,266.417 250.139 C 267.524 247.343,268.975 244.093,269.641 242.917 C 275.932 231.815,274.724 215.782,267.083 208.974 C 265.765 207.800,261.389 207.245,258.444 207.879 M264.174 211.864 C 269.889 214.764,272.550 224.633,269.408 231.278 C 268.812 232.539,268.509 232.731,268.355 231.944 C 267.875 229.482,267.413 228.034,266.544 226.269 C 262.696 218.453,256.161 218.642,249.169 226.773 C 247.810 228.353,247.633 228.292,248.118 226.413 C 250.755 216.202,258.641 209.055,264.174 211.864 M174.730 222.111 C 174.732 222.722,174.775 222.946,174.826 222.608 C 174.877 222.270,174.876 221.770,174.823 221.497 C 174.770 221.224,174.729 221.500,174.730 222.111 M153.653 222.944 L 153.000 223.667 153.722 223.014 C 154.119 222.655,154.444 222.330,154.444 222.292 C 154.444 222.120,154.261 222.271,153.653 222.944 M248.161 231.728 C 248.680 235.286,250.173 237.786,253.101 240.000 C 254.980 241.421,254.751 241.715,252.574 240.676 C 250.733 239.797,248.944 238.160,248.027 236.515 L 247.306 235.222 247.449 236.095 C 247.695 237.608,248.482 238.950,250.051 240.530 C 251.830 242.322,251.834 242.482,250.078 241.594 C 245.396 239.225,243.841 233.695,246.976 230.560 C 247.795 229.740,247.884 229.828,248.161 231.728 M242.322 234.857 C 242.002 236.089,242.300 237.556,242.869 237.556 C 243.461 237.556,244.184 241.997,243.900 243.892 C 243.773 244.741,243.505 245.186,242.373 246.425 C 239.709 249.340,238.481 252.244,239.170 253.997 C 239.666 255.262,238.536 255.251,237.881 253.984 C 236.854 251.999,237.657 249.716,240.392 246.845 C 242.885 244.228,242.888 244.222,242.927 241.732 C 242.960 239.631,242.700 238.673,241.921 238.027 C 241.179 237.411,241.284 235.342,242.121 234.065 C 242.627 233.292,242.677 233.488,242.322 234.857 M264.667 239.245 C 264.667 244.475,261.501 250.721,257.404 253.575 C 255.860 254.651,255.899 254.308,257.504 252.703 C 260.860 249.347,263.222 244.465,264.048 239.177 C 264.351 237.239,264.667 237.273,264.667 239.245 M113.321 252.795 C 112.435 253.715,108.436 256.783,105.232 258.999 C 101.967 261.258,98.874 263.811,97.920 265.034 C 96.896 266.345,96.765 265.541,99.438 274.333 C 102.406 284.098,103.320 287.873,103.339 290.444 L 103.347 291.444 104.951 289.776 C 105.834 288.859,108.100 286.109,109.987 283.665 C 111.874 281.221,114.409 277.940,115.620 276.374 C 116.831 274.807,117.787 273.498,117.744 273.465 C 117.702 273.432,117.095 273.031,116.395 272.574 C 114.609 271.406,112.953 269.507,112.019 267.556 L 111.222 265.889 111.236 262.778 C 111.252 259.234,111.661 257.597,113.440 253.944 C 114.483 251.803,114.463 251.610,113.321 252.795 M249.778 257.340 C 249.778 258.372,248.268 260.222,247.427 260.222 C 247.112 260.222,246.390 260.708,245.554 261.481 C 243.730 263.170,242.855 263.075,239.996 260.878 L 239.444 260.454 240.819 260.449 C 242.538 260.443,243.174 260.203,244.355 259.114 C 244.967 258.551,245.591 258.201,246.147 258.111 C 246.616 258.035,247.550 257.793,248.222 257.573 C 249.771 257.067,249.778 257.066,249.778 257.340 M154.971 298.351 C 153.048 298.874,147.994 300.783,141.755 303.343 C 134.779 306.204,131.020 307.504,129.015 307.745 C 126.513 308.046,125.528 309.729,124.997 314.611 C 124.804 316.382,124.926 316.375,126.921 314.500 C 128.994 312.552,129.778 311.329,129.778 310.044 C 129.778 309.088,129.793 309.067,130.389 309.202 C 131.645 309.489,135.513 311.581,137.444 313.019 C 142.003 316.413,147.125 316.465,155.942 313.208 C 166.570 309.282,168.784 306.083,163.818 301.824 C 159.847 298.418,157.750 297.594,154.971 298.351 M301.165 357.838 C 299.667 360.922,298.442 363.515,298.443 363.601 C 298.444 363.687,297.294 366.080,295.889 368.918 C 294.483 371.756,293.333 374.164,293.333 374.269 C 293.333 374.374,292.179 376.815,290.768 379.692 C 289.356 382.570,288.010 385.410,287.776 386.003 C 287.543 386.597,286.746 388.289,286.007 389.763 C 285.268 391.238,284.716 392.444,284.779 392.444 C 284.888 392.444,289.985 389.055,294.575 385.930 C 295.685 385.174,297.135 384.198,297.797 383.761 C 300.173 382.193,306.152 378.133,308.207 376.692 C 309.359 375.883,311.376 374.522,312.688 373.667 C 315.418 371.886,321.998 367.436,325.111 365.263 C 326.272 364.453,327.755 363.475,328.407 363.091 C 329.058 362.706,329.508 362.320,329.407 362.233 C 329.200 362.055,318.083 357.673,315.667 356.817 C 314.811 356.514,311.911 355.394,309.222 354.328 C 306.533 353.262,304.233 352.354,304.111 352.311 C 303.989 352.268,302.663 354.755,301.165 357.838 " stroke="none" fill="#f6d9ac" fill-rule="evenodd"></path></g></svg>